<?xml version="1.0" encoding="UTF-8"?>
<svg xmlns="http://www.w3.org/2000/svg" xmlns:xlink="http://www.w3.org/1999/xlink" width="156.67pt" height="215.05pt" viewBox="0 0 156.67 215.05" version="1.1">
<defs>
<clipPath id="clip1">
  <path d="M 4 0 L 156.671875 0 L 156.671875 106 L 4 106 Z M 4 0 "/>
</clipPath>
<clipPath id="clip2">
  <path d="M 0 187 L 22 187 L 22 215.050781 L 0 215.050781 Z M 0 187 "/>
</clipPath>
<clipPath id="clip3">
  <path d="M 33 187 L 44 187 L 44 215.050781 L 33 215.050781 Z M 33 187 "/>
</clipPath>
<clipPath id="clip4">
  <path d="M 43 205 L 51 205 L 51 215.050781 L 43 215.050781 Z M 43 205 "/>
</clipPath>
<clipPath id="clip5">
  <path d="M 60 187 L 83 187 L 83 215.050781 L 60 215.050781 Z M 60 187 "/>
</clipPath>
<clipPath id="clip6">
  <path d="M 82 204 L 93 204 L 93 215.050781 L 82 215.050781 Z M 82 204 "/>
</clipPath>
<clipPath id="clip7">
  <path d="M 92 205 L 101 205 L 101 215.050781 L 92 215.050781 Z M 92 205 "/>
</clipPath>
<clipPath id="clip8">
  <path d="M 147 204 L 156.671875 204 L 156.671875 215.050781 L 147 215.050781 Z M 147 204 "/>
</clipPath>
</defs>
<g id="surface1">
<path style=" stroke:none;fill-rule:nonzero;fill:rgb(90.99884%,86.698914%,72.198486%);fill-opacity:1;" d="M 122.09375 84.566406 C 107.511719 84.566406 117.828125 66.519531 97.785156 66.519531 C 83.199219 66.519531 61.882813 101.292969 47.972656 74.84375 C 38.179688 56.222656 30.351563 67.226563 24.859375 73.472656 L 24.859375 112.117188 C 24.859375 115.699219 27.761719 118.597656 31.339844 118.597656 L 125.335938 118.597656 C 128.914063 118.597656 131.820313 115.699219 131.820313 112.117188 L 131.820313 82.863281 C 129.289063 83.9375 126.113281 84.566406 122.09375 84.566406 "/>
<g clip-path="url(#clip1)" clip-rule="nonzero">
<path style="fill:none;stroke-width:15.46;stroke-linecap:butt;stroke-linejoin:miter;stroke:rgb(25.898743%,15.299988%,1.199341%);stroke-opacity:1;stroke-miterlimit:10;" d="M 815.429688 2086.671875 C 770.507813 2086.671875 860.351563 1996.828125 860.351563 2086.671875 C 860.351563 2176.476563 770.507813 2131.59375 770.507813 2131.59375 C 770.507813 2131.59375 680.703125 2086.671875 815.429688 1951.945313 C 929.921875 1837.414063 725.625 1772.296875 725.625 1772.296875 L 725.625 1727.375 C 725.625 1727.375 1219.648438 1772.296875 1309.492188 1682.453125 C 1399.296875 1592.648438 1354.375 1323.15625 1219.648438 1323.15625 C 1084.921875 1323.15625 1129.804688 1457.882813 995.078125 1502.804688 C 860.351563 1547.726563 770.507813 1278.234375 590.859375 1323.15625 C 411.25 1368.078125 476.875 1653.9375 259.609375 1490.96875 " transform="matrix(0.1,0,0,-0.1,0,215.05)"/>
</g>
<path style=" stroke:none;fill-rule:nonzero;fill:rgb(92.89856%,74.499512%,10.998535%);fill-opacity:1;" d="M 131.480469 120.664063 L 25.199219 120.664063 C 22.941406 120.664063 21.109375 122.492188 21.109375 124.753906 C 21.109375 127.007813 22.941406 128.839844 25.199219 128.839844 L 70.164063 128.839844 C 70.164063 128.839844 78.335938 137.015625 70.164063 145.191406 L 44.175781 145.191406 C 42.726563 145.191406 41.546875 145.929688 41.546875 146.839844 C 41.546875 147.753906 42.726563 148.492188 44.175781 148.492188 L 112.5 148.492188 C 113.953125 148.492188 115.128906 147.753906 115.128906 146.839844 C 115.128906 145.929688 113.953125 145.191406 112.5 145.191406 L 86.515625 145.191406 C 86.515625 145.191406 78.335938 137.015625 86.515625 128.839844 L 131.480469 128.839844 C 133.738281 128.839844 135.566406 127.007813 135.566406 124.753906 C 135.566406 122.492188 133.738281 120.664063 131.480469 120.664063 "/>
<path style=" stroke:none;fill-rule:nonzero;fill:rgb(36.898804%,17.599487%,11.399841%);fill-opacity:1;" d="M 44.441406 177.535156 L 47.398438 177.535156 C 48.945313 177.558594 50.097656 176.847656 50.851563 175.410156 C 51.605469 173.972656 51.984375 172.238281 51.984375 170.207031 L 51.984375 169.421875 C 51.964844 169.402344 51.953125 169.378906 51.953125 169.347656 L 51.953125 168.609375 C 51.851563 166.515625 51.554688 164.8125 51.058594 163.496094 C 50.570313 162.179688 49.125 161.519531 46.734375 161.519531 L 44.441406 161.519531 Z M 46.914063 159.648438 C 49.652344 159.667969 51.527344 160.441406 52.539063 161.960938 C 53.554688 163.480469 54.0625 165.914063 54.0625 169.257813 C 54.0625 172.496094 53.519531 175.011719 52.433594 176.792969 C 51.347656 178.578125 49.667969 179.46875 47.398438 179.46875 L 42.574219 179.4375 L 42.574219 159.648438 "/>
<path style=" stroke:none;fill-rule:nonzero;fill:rgb(36.898804%,17.599487%,11.399841%);fill-opacity:1;" d="M 62.707031 167.136719 C 62.210938 166.488281 61.664063 166.144531 61.0625 166.105469 L 60.910156 166.105469 C 60.085938 166.105469 59.457031 166.464844 59.023438 167.191406 C 58.589844 167.914063 58.324219 169.152344 58.226563 170.902344 L 63.441406 170.902344 C 63.441406 169.039063 63.199219 167.785156 62.707031 167.136719 M 56.566406 172.53125 C 56.566406 169.554688 56.953125 167.496094 57.730469 166.359375 C 58.5 165.226563 59.5625 164.65625 60.910156 164.65625 C 62.398438 164.65625 63.480469 165.265625 64.152344 166.480469 C 64.828125 167.699219 65.160156 169.171875 65.160156 170.902344 L 65.160156 171.140625 C 65.160156 171.222656 65.152344 171.300781 65.132813 171.382813 L 65.132813 171.625 C 65.132813 171.746094 65.128906 171.867188 65.117188 171.984375 C 65.105469 172.105469 65.101563 172.226563 65.101563 172.347656 L 58.226563 172.347656 C 58.226563 172.367188 58.21875 172.386719 58.210938 172.410156 C 58.203125 172.429688 58.195313 172.449219 58.195313 172.46875 C 58.195313 172.507813 58.191406 172.550781 58.179688 172.589844 C 58.167969 172.628906 58.164063 172.667969 58.164063 172.707031 C 58.164063 172.96875 58.179688 173.359375 58.210938 173.878906 C 58.242188 174.398438 58.316406 174.949219 58.4375 175.53125 C 58.617188 176.3125 58.894531 177.023438 59.265625 177.664063 C 59.636719 178.300781 60.1875 178.621094 60.910156 178.621094 C 61.695313 178.621094 62.28125 178.367188 62.675781 177.851563 C 63.066406 177.339844 63.300781 176.769531 63.382813 176.148438 C 63.402344 176.027344 63.414063 175.914063 63.429688 175.800781 C 63.4375 175.691406 63.441406 175.574219 63.441406 175.457031 L 63.441406 174.851563 L 65.101563 174.851563 L 65.101563 175.332031 C 65.101563 176.921875 64.707031 178.078125 63.910156 178.800781 C 63.113281 179.527344 62.246094 179.929688 61.300781 180.007813 C 61.242188 180.03125 61.175781 180.039063 61.105469 180.039063 L 60.910156 180.039063 C 59.601563 179.976563 58.652344 179.535156 58.058594 178.710938 C 57.464844 177.886719 57.058594 176.972656 56.839844 175.96875 C 56.699219 175.304688 56.617188 174.664063 56.597656 174.050781 C 56.578125 173.4375 56.566406 172.941406 56.566406 172.558594 "/>
<path style=" stroke:none;fill-rule:nonzero;fill:rgb(36.898804%,17.599487%,11.399841%);fill-opacity:1;" d="M 68.238281 179.40625 L 69.898438 179.40625 L 69.898438 159.648438 L 68.238281 159.648438 Z M 68.238281 179.40625 "/>
<path style=" stroke:none;fill-rule:nonzero;fill:rgb(36.898804%,17.599487%,11.399841%);fill-opacity:1;" d="M 76.292969 179.40625 L 74.421875 179.40625 L 74.421875 164.839844 L 76.292969 164.839844 Z M 76.292969 162.335938 L 74.421875 162.335938 L 74.421875 159.648438 L 76.292969 159.648438 Z M 76.292969 162.335938 "/>
<path style=" stroke:none;fill-rule:nonzero;fill:rgb(36.898804%,17.599487%,11.399841%);fill-opacity:1;" d="M 92.507813 171.503906 L 97.515625 171.503906 L 94.800781 161.519531 Z M 95.886719 159.648438 L 101.257813 179.40625 L 99.386719 179.40625 L 97.9375 173.191406 L 92.085938 173.191406 L 90.425781 179.40625 L 88.589844 179.40625 L 93.953125 159.648438 "/>
<path style=" stroke:none;fill-rule:nonzero;fill:rgb(36.898804%,17.599487%,11.399841%);fill-opacity:1;" d="M 104.8125 164.839844 L 104.8125 166.527344 C 105.132813 165.902344 105.546875 165.402344 106.050781 165.019531 C 106.554688 164.636719 107.328125 164.445313 108.375 164.445313 L 108.375 166.074219 C 108.269531 166.113281 108.179688 166.140625 108.101563 166.152344 C 108.019531 166.15625 107.941406 166.175781 107.859375 166.195313 C 106.796875 166.398438 106.054688 166.707031 105.644531 167.128906 C 105.230469 167.550781 105.023438 168.535156 105.023438 170.085938 L 105.023438 179.40625 L 103.15625 179.40625 L 103.15625 164.839844 "/>
<path style=" stroke:none;fill-rule:nonzero;fill:rgb(36.898804%,17.599487%,11.399841%);fill-opacity:1;" d="M 112.234375 160.464844 L 112.234375 164.839844 L 114.105469 164.839844 L 114.105469 166.316406 L 112.234375 166.316406 L 112.234375 176.71875 C 112.234375 177.246094 112.308594 177.640625 112.460938 177.914063 C 112.609375 178.183594 112.824219 178.320313 113.105469 178.320313 C 113.226563 178.320313 113.355469 178.289063 113.503906 178.226563 C 113.640625 178.167969 113.789063 178.109375 113.953125 178.050781 C 113.972656 178.050781 113.996094 178.042969 114.03125 178.035156 C 114.054688 178.023438 114.082031 178.011719 114.105469 177.988281 L 114.105469 179.40625 C 114.082031 179.425781 114.054688 179.441406 114.03125 179.449219 C 113.996094 179.464844 113.972656 179.46875 113.953125 179.46875 C 113.832031 179.507813 113.6875 179.546875 113.515625 179.585938 C 113.34375 179.628906 113.175781 179.65625 113.015625 179.675781 L 112.746094 179.675781 C 112.644531 179.675781 112.546875 179.671875 112.460938 179.660156 C 112.371094 179.652344 112.273438 179.636719 112.171875 179.617188 C 111.75 179.515625 111.367188 179.253906 111.023438 178.832031 C 110.683594 178.410156 110.511719 177.71875 110.511719 176.75 C 110.511719 176.730469 110.519531 176.703125 110.53125 176.660156 C 110.539063 176.621094 110.546875 176.582031 110.546875 176.539063 L 110.546875 176.511719 C 110.5625 176.488281 110.574219 176.460938 110.574219 176.417969 L 110.574219 166.316406 L 109.128906 166.316406 L 109.128906 164.839844 L 110.574219 164.839844 L 110.574219 160.464844 "/>
<g clip-path="url(#clip2)" clip-rule="nonzero">
<path style=" stroke:none;fill-rule:nonzero;fill:rgb(36.898804%,17.599487%,11.399841%);fill-opacity:1;" d="M 21.164063 211.566406 C 20.789063 211.890625 20.425781 212.191406 20.078125 212.464844 C 19.652344 212.765625 19.265625 213.015625 18.914063 213.214844 C 18.542969 213.441406 18.242188 213.589844 18.019531 213.667969 L 18.652344 213.066406 C 19.351563 212.566406 20.015625 212.054688 20.640625 211.53125 C 21.238281 211.03125 21.6875 210.570313 21.988281 210.144531 L 21.988281 210.628906 C 21.789063 210.929688 21.515625 211.242188 21.164063 211.566406 M 13.484375 209.207031 C 13.410156 208.710938 13.371094 208.183594 13.371094 207.632813 C 13.371094 206.511719 13.699219 205.585938 14.347656 204.863281 C 14.972656 204.164063 15.730469 203.789063 16.632813 203.738281 C 17.679688 203.761719 18.527344 204.1875 19.179688 205.011719 C 19.800781 205.835938 20.113281 207.058594 20.113281 208.683594 C 20.113281 209.082031 20.089844 209.570313 20.039063 210.144531 C 19.890625 211.390625 19.367188 212.453125 18.46875 213.328125 C 17.542969 214.226563 16.292969 214.789063 14.722656 215.011719 C 13.996094 215.011719 13.335938 214.875 12.734375 214.601563 C 12.136719 214.351563 11.625 214.015625 11.203125 213.589844 C 10.75 213.191406 10.363281 212.765625 10.039063 212.316406 C 9.714844 211.890625 9.378906 211.378906 9.027344 210.78125 C 8.804688 210.40625 8.652344 210.171875 8.578125 210.066406 C 7.628906 207.296875 7.15625 204.636719 7.15625 202.089844 C 7.15625 200.46875 7.332031 198.996094 7.679688 197.671875 C 8.027344 196.347656 8.464844 195.1875 8.988281 194.1875 C 10.0625 192.089844 11.25 190.429688 12.550781 189.207031 C 13.847656 187.980469 15.292969 187.371094 16.894531 187.371094 L 17.230469 187.371094 C 17.355469 187.394531 17.46875 187.40625 17.566406 187.40625 C 18.542969 187.65625 19.230469 188.070313 19.628906 188.644531 C 20.027344 189.21875 20.226563 189.90625 20.226563 190.703125 C 20.226563 191.28125 20.140625 191.902344 19.964844 192.578125 C 19.765625 193.25 19.488281 193.976563 19.140625 194.75 C 17.914063 196.972656 16.46875 198.671875 14.796875 199.84375 C 13.097656 201.019531 11.160156 201.601563 8.988281 201.601563 C 8.066406 201.601563 6.65625 201.390625 4.757813 200.96875 C 3.160156 200.292969 1.976563 199.40625 1.199219 198.308594 C 0.398438 197.210938 0 196.023438 0 194.75 C 0 193.277344 0.488281 191.878906 1.460938 190.554688 C 2.433594 189.230469 3.746094 188.207031 5.394531 187.484375 L 5.917969 187.484375 C 4.019531 188.457031 2.609375 189.566406 1.683594 190.816406 C 0.761719 192.066406 0.300781 193.351563 0.300781 194.675781 C 0.300781 195.574219 0.5 196.421875 0.898438 197.21875 C 1.300781 198.019531 1.875 198.71875 2.621094 199.320313 C 3.347656 199.945313 4.222656 200.429688 5.246094 200.78125 C 6.269531 201.128906 7.382813 201.304688 8.578125 201.304688 C 10.304688 201.304688 11.886719 200.929688 13.335938 200.179688 C 14.757813 199.433594 15.96875 198.46875 16.96875 197.296875 C 17.941406 196.148438 18.691406 194.960938 19.214844 193.738281 C 19.714844 192.539063 19.964844 191.503906 19.964844 190.628906 C 19.964844 190.230469 19.902344 189.867188 19.777344 189.542969 C 19.179688 188.292969 18.253906 187.671875 17.007813 187.671875 C 16.53125 187.671875 16.105469 187.707031 15.730469 187.78125 C 15.332031 187.859375 14.882813 188.019531 14.386719 188.269531 C 13.660156 188.816406 13.074219 189.394531 12.621094 189.992188 C 12.175781 190.589844 11.710938 191.390625 11.238281 192.390625 C 10.863281 193.339844 10.5625 194.300781 10.339844 195.273438 C 10.113281 196.246094 9.902344 197.519531 9.703125 199.09375 C 9.675781 199.667969 9.652344 200.367188 9.625 201.191406 C 9.601563 202.039063 9.589844 202.914063 9.589844 203.8125 C 9.589844 205.785156 9.664063 207.507813 9.8125 208.984375 C 9.964844 210.457031 10.214844 211.457031 10.5625 211.980469 C 11.0625 212.902344 11.613281 213.578125 12.210938 214.003906 C 12.785156 214.425781 13.511719 214.703125 14.386719 214.828125 C 15.65625 214.703125 16.765625 214.277344 17.71875 213.550781 C 18.640625 212.855469 19.265625 212.015625 19.589844 211.042969 C 19.765625 210.242188 19.855469 209.46875 19.855469 208.71875 C 19.855469 207.621094 19.6875 206.671875 19.367188 205.875 C 19.015625 205.074219 18.566406 204.539063 18.019531 204.261719 C 17.566406 204.015625 17.105469 203.886719 16.632813 203.886719 C 16.03125 203.886719 15.484375 204.078125 14.984375 204.449219 C 14.460938 204.851563 14.058594 205.425781 13.785156 206.171875 C 13.660156 206.546875 13.597656 207.144531 13.597656 207.972656 C 13.597656 208.871094 13.710938 209.621094 13.933594 210.21875 L 13.785156 210.445313 C 13.636719 210.117188 13.53125 209.707031 13.484375 209.207031 "/>
</g>
<path style=" stroke:none;fill-rule:nonzero;fill:rgb(36.898804%,17.599487%,11.399841%);fill-opacity:1;" d="M 33.300781 210.632813 L 33.300781 210.105469 C 33.171875 210.554688 32.824219 211.445313 32.25 212.765625 C 32.199219 212.867188 32.089844 213.113281 31.914063 213.515625 C 31.589844 213.941406 31.328125 214.230469 31.128906 214.378906 C 30.902344 214.527344 30.652344 214.601563 30.378906 214.601563 C 30.003906 214.578125 29.753906 214.488281 29.628906 214.339844 C 29.503906 214.214844 29.417969 214 29.363281 213.703125 C 29.34375 213.550781 29.316406 213.414063 29.292969 213.289063 L 29.292969 205.726563 L 27.457031 205.726563 L 27.457031 213.175781 L 27.53125 213.363281 C 27.707031 213.8125 27.980469 214.179688 28.355469 214.453125 C 28.707031 214.75 29.328125 214.902344 30.226563 214.902344 C 30.703125 214.777344 31.035156 214.640625 31.238281 214.488281 C 31.414063 214.363281 31.640625 214.113281 31.914063 213.738281 C 32.015625 213.566406 32.113281 213.363281 32.214844 213.140625 C 32.261719 213.039063 32.300781 212.96875 32.324219 212.914063 C 32.527344 212.441406 32.636719 212.179688 32.660156 212.128906 C 32.710938 211.980469 32.761719 211.84375 32.8125 211.714844 C 32.964844 211.417969 33.050781 211.242188 33.074219 211.191406 L 33.148438 211.007813 Z M 27.457031 211.753906 L 27.492188 212.503906 L 27.457031 212.539063 C 27.457031 212.59375 27.445313 212.628906 27.417969 212.652344 C 26.992188 213.425781 26.59375 214.039063 26.21875 214.488281 C 25.769531 214.816406 25.308594 214.976563 24.835938 214.976563 C 24.382813 214.976563 23.949219 214.839844 23.523438 214.5625 C 23.023438 214.066406 22.660156 213.539063 22.4375 212.992188 C 22.1875 212.464844 22.035156 211.929688 21.988281 211.382813 L 21.988281 210.820313 C 21.988281 209.542969 22.257813 208.398438 22.8125 207.371094 C 23.257813 206.671875 23.695313 206.222656 24.125 206.023438 C 24.523438 205.824219 24.90625 205.726563 25.28125 205.726563 C 25.78125 205.726563 26.183594 205.847656 26.484375 206.101563 C 26.757813 206.347656 27.007813 206.660156 27.230469 207.035156 C 27.332031 207.210938 27.40625 207.324219 27.457031 207.371094 L 27.457031 207.894531 C 27.179688 207.199219 26.867188 206.699219 26.519531 206.398438 C 26.144531 206.121094 25.796875 205.988281 25.472656 205.988281 C 25.222656 205.988281 25.035156 206.035156 24.90625 206.136719 C 24.734375 206.234375 24.609375 206.371094 24.535156 206.546875 C 24.433594 206.699219 24.273438 207.070313 24.046875 207.671875 C 23.898438 208.347656 23.796875 208.808594 23.75 209.058594 C 23.695313 209.355469 23.648438 209.859375 23.597656 210.554688 C 23.597656 210.605469 23.609375 210.667969 23.636719 210.742188 C 23.636719 210.941406 23.648438 211.191406 23.675781 211.492188 C 23.695313 212.070313 23.75 212.527344 23.824219 212.878906 C 23.898438 213.226563 24.085938 213.640625 24.382813 214.113281 C 24.710938 214.4375 25.035156 214.601563 25.359375 214.601563 C 25.855469 214.601563 26.320313 214.265625 26.742188 213.589844 C 27.144531 212.914063 27.378906 212.304688 27.457031 211.753906 "/>
<g clip-path="url(#clip3)" clip-rule="nonzero">
<path style=" stroke:none;fill-rule:nonzero;fill:rgb(36.898804%,17.599487%,11.399841%);fill-opacity:1;" d="M 41.089844 214.488281 C 41.316406 214.363281 41.566406 214.0625 41.839844 213.589844 C 42.214844 212.71875 42.539063 211.96875 42.8125 211.34375 C 43.0625 210.742188 43.210938 210.34375 43.261719 210.144531 L 43.261719 210.667969 C 43.234375 210.742188 43.175781 210.878906 43.074219 211.082031 C 42.824219 211.628906 42.589844 212.179688 42.363281 212.730469 C 42.136719 213.25 41.964844 213.625 41.839844 213.851563 C 41.589844 214.226563 41.363281 214.472656 41.164063 214.601563 C 40.941406 214.726563 40.578125 214.851563 40.078125 214.976563 L 39.929688 214.976563 C 39.878906 215 39.828125 215.011719 39.777344 215.011719 C 39.328125 215.011719 38.992188 214.851563 38.769531 214.527344 C 38.542969 214.226563 38.40625 213.8125 38.355469 213.292969 L 38.355469 210.144531 C 38.03125 210.066406 37.71875 210.03125 37.421875 210.03125 C 36.746094 210.03125 36.410156 210.15625 36.410156 210.40625 C 36.410156 210.457031 36.433594 210.507813 36.480469 210.554688 C 36.707031 210.605469 36.917969 210.632813 37.117188 210.632813 C 37.445313 210.632813 37.84375 210.46875 38.320313 210.144531 L 38.355469 210.105469 L 38.355469 209.058594 C 38.378906 208.632813 38.394531 208.367188 38.394531 208.269531 C 38.394531 208.148438 38.378906 207.894531 38.355469 207.523438 L 38.355469 206.996094 C 38.082031 206.421875 37.730469 206.136719 37.304688 206.136719 C 36.90625 206.136719 36.507813 206.421875 36.109375 206.996094 C 35.710938 207.597656 35.347656 208.546875 35.023438 209.84375 L 35.023438 209.320313 C 35.320313 208.320313 35.683594 207.496094 36.109375 206.847656 C 36.535156 206.199219 36.917969 205.847656 37.269531 205.800781 C 37.371094 205.800781 37.46875 205.785156 37.570313 205.761719 L 37.867188 205.761719 C 38.519531 205.761719 39.019531 205.914063 39.367188 206.210938 C 39.691406 206.511719 39.851563 206.996094 39.851563 207.671875 C 39.851563 207.71875 39.828125 207.882813 39.777344 208.160156 C 39.703125 208.632813 39.589844 209.03125 39.441406 209.355469 C 39.265625 209.683594 38.917969 210.019531 38.394531 210.367188 C 37.84375 210.742188 37.371094 210.929688 36.96875 210.929688 C 36.71875 210.929688 36.480469 210.867188 36.257813 210.742188 C 36.15625 210.617188 36.109375 210.507813 36.109375 210.40625 C 36.109375 209.980469 36.535156 209.769531 37.382813 209.769531 L 37.570313 209.808594 L 37.832031 209.808594 C 38.703125 209.832031 39.265625 210.15625 39.519531 210.78125 C 39.742188 211.429688 39.851563 212.578125 39.851563 214.226563 C 39.851563 214.453125 39.941406 214.617188 40.117188 214.714844 C 40.515625 214.714844 40.839844 214.636719 41.089844 214.488281 M 38.394531 192.011719 C 38.394531 190.742188 38.167969 189.605469 37.71875 188.605469 C 37.242188 187.882813 36.746094 187.519531 36.21875 187.519531 C 35.871094 187.519531 35.585938 187.707031 35.359375 188.082031 C 35.132813 188.480469 35.023438 189.082031 35.023438 189.882813 L 35.023438 215.050781 L 33.1875 215.050781 L 33.1875 190.140625 C 33.261719 189.269531 33.574219 188.558594 34.121094 188.007813 C 34.671875 187.460938 35.273438 187.183594 35.921875 187.183594 C 36.769531 187.183594 37.433594 187.59375 37.90625 188.417969 C 38.105469 188.792969 38.28125 189.269531 38.429688 189.84375 C 38.578125 190.417969 38.65625 191.117188 38.65625 191.941406 C 38.65625 193.359375 38.378906 195.0625 37.832031 197.035156 C 37.28125 199.03125 36.34375 201.34375 35.023438 203.964844 L 35.023438 203.550781 C 37.269531 198.730469 38.394531 194.886719 38.394531 192.011719 "/>
</g>
<g clip-path="url(#clip4)" clip-rule="nonzero">
<path style=" stroke:none;fill-rule:nonzero;fill:rgb(36.898804%,17.599487%,11.399841%);fill-opacity:1;" d="M 48.691406 214.414063 C 48.867188 214.289063 49.09375 214.09375 49.367188 213.8125 C 49.417969 213.738281 49.453125 213.6875 49.480469 213.667969 C 49.78125 213.214844 50.066406 212.601563 50.339844 211.832031 C 50.613281 211.105469 50.800781 210.542969 50.902344 210.144531 L 50.902344 210.667969 C 50.800781 211.042969 50.613281 211.566406 50.339844 212.242188 C 50.066406 212.917969 49.78125 213.453125 49.480469 213.851563 C 49.203125 214.179688 48.980469 214.398438 48.804688 214.527344 C 48.628906 214.652344 48.332031 214.800781 47.90625 214.976563 L 47.34375 214.976563 C 47.144531 215 46.945313 215.011719 46.746094 215.011719 C 45.570313 214.964844 44.734375 214.601563 44.234375 213.925781 C 43.738281 213.25 43.410156 212.316406 43.261719 211.117188 C 43.285156 209.945313 43.4375 208.984375 43.710938 208.234375 C 43.984375 207.511719 44.324219 206.972656 44.722656 206.621094 C 45.121094 206.273438 45.507813 206.050781 45.882813 205.949219 C 46.234375 205.847656 46.546875 205.800781 46.820313 205.800781 C 46.921875 205.75 47.046875 205.726563 47.195313 205.726563 C 47.644531 205.726563 48.070313 205.886719 48.46875 206.210938 C 48.867188 206.5625 49.066406 207.023438 49.066406 207.597656 C 49.066406 208.121094 48.90625 208.683594 48.582031 209.28125 C 48.257813 209.605469 47.78125 209.871094 47.15625 210.066406 C 46.507813 210.292969 45.683594 210.433594 44.683594 210.480469 L 44.609375 210.144531 C 45.484375 210.144531 46.121094 210.097656 46.519531 209.992188 C 46.898438 209.917969 47.28125 209.796875 47.683594 209.621094 L 47.90625 209.507813 C 48.53125 209.082031 48.84375 208.507813 48.84375 207.785156 C 48.84375 207.285156 48.691406 206.847656 48.394531 206.472656 C 48.09375 206.125 47.707031 205.949219 47.230469 205.949219 C 46.433594 206.050781 45.847656 206.433594 45.472656 207.109375 C 45.097656 207.785156 44.898438 208.972656 44.871094 210.667969 C 44.871094 212.191406 45.007813 213.226563 45.285156 213.777344 C 45.535156 214.351563 45.996094 214.710938 46.667969 214.863281 C 47.269531 214.863281 47.71875 214.8125 48.019531 214.710938 C 48.292969 214.640625 48.519531 214.539063 48.691406 214.414063 "/>
</g>
<g clip-path="url(#clip5)" clip-rule="nonzero">
<path style=" stroke:none;fill-rule:nonzero;fill:rgb(36.898804%,17.599487%,11.399841%);fill-opacity:1;" d="M 82.066406 211.566406 C 81.691406 211.890625 81.328125 212.191406 80.976563 212.464844 C 80.554688 212.765625 80.167969 213.015625 79.820313 213.214844 C 79.445313 213.441406 79.144531 213.589844 78.917969 213.667969 L 79.558594 213.066406 C 80.253906 212.566406 80.917969 212.054688 81.539063 211.53125 C 82.140625 211.03125 82.589844 210.570313 82.890625 210.144531 L 82.890625 210.628906 C 82.6875 210.929688 82.417969 211.242188 82.066406 211.566406 M 74.386719 209.207031 C 74.3125 208.710938 74.277344 208.183594 74.277344 207.632813 C 74.277344 206.511719 74.601563 205.585938 75.25 204.863281 C 75.871094 204.164063 76.636719 203.789063 77.53125 203.738281 C 78.582031 203.761719 79.429688 204.1875 80.082031 205.011719 C 80.703125 205.835938 81.015625 207.058594 81.015625 208.683594 C 81.015625 209.082031 80.988281 209.570313 80.941406 210.144531 C 80.792969 211.390625 80.269531 212.453125 79.371094 213.328125 C 78.445313 214.226563 77.195313 214.789063 75.625 215.011719 C 74.898438 215.011719 74.238281 214.875 73.640625 214.601563 C 73.039063 214.351563 72.527344 214.015625 72.101563 213.589844 C 71.652344 213.191406 71.265625 212.765625 70.941406 212.316406 C 70.617188 211.890625 70.28125 211.378906 69.929688 210.78125 C 69.703125 210.40625 69.554688 210.171875 69.480469 210.066406 C 68.53125 207.296875 68.054688 204.636719 68.054688 202.089844 C 68.054688 200.46875 68.230469 198.996094 68.582031 197.671875 C 68.929688 196.347656 69.371094 195.1875 69.894531 194.1875 C 70.964844 192.089844 72.152344 190.429688 73.449219 189.207031 C 74.75 187.980469 76.199219 187.371094 77.796875 187.371094 L 78.132813 187.371094 C 78.257813 187.394531 78.371094 187.40625 78.46875 187.40625 C 79.445313 187.65625 80.128906 188.070313 80.53125 188.644531 C 80.929688 189.21875 81.128906 189.90625 81.128906 190.703125 C 81.128906 191.28125 81.042969 191.902344 80.863281 192.578125 C 80.667969 193.25 80.394531 193.976563 80.042969 194.75 C 78.820313 196.972656 77.371094 198.671875 75.699219 199.84375 C 74 201.019531 72.066406 201.601563 69.894531 201.601563 C 68.96875 201.601563 67.558594 201.390625 65.660156 200.96875 C 64.0625 200.292969 62.875 199.40625 62.101563 198.308594 C 61.300781 197.210938 60.902344 196.023438 60.902344 194.75 C 60.902344 193.277344 61.390625 191.878906 62.363281 190.554688 C 63.335938 189.230469 64.648438 188.207031 66.296875 187.484375 L 66.820313 187.484375 C 64.921875 188.457031 63.511719 189.566406 62.585938 190.816406 C 61.664063 192.066406 61.203125 193.351563 61.203125 194.675781 C 61.203125 195.574219 61.402344 196.421875 61.800781 197.21875 C 62.203125 198.019531 62.777344 198.71875 63.527344 199.320313 C 64.25 199.945313 65.125 200.429688 66.148438 200.78125 C 67.171875 201.128906 68.28125 201.304688 69.480469 201.304688 C 71.203125 201.304688 72.789063 200.929688 74.238281 200.179688 C 75.660156 199.433594 76.871094 198.46875 77.871094 197.296875 C 78.84375 196.148438 79.59375 194.960938 80.117188 193.738281 C 80.617188 192.539063 80.863281 191.503906 80.863281 190.628906 C 80.863281 190.230469 80.804688 189.867188 80.679688 189.542969 C 80.082031 188.292969 79.15625 187.671875 77.90625 187.671875 C 77.433594 187.671875 77.007813 187.707031 76.636719 187.78125 C 76.234375 187.859375 75.785156 188.019531 75.285156 188.269531 C 74.5625 188.816406 73.972656 189.394531 73.527344 189.992188 C 73.078125 190.589844 72.613281 191.390625 72.140625 192.390625 C 71.765625 193.339844 71.464844 194.300781 71.242188 195.273438 C 71.015625 196.246094 70.804688 197.519531 70.601563 199.09375 C 70.578125 199.667969 70.554688 200.367188 70.53125 201.191406 C 70.503906 202.039063 70.492188 202.914063 70.492188 203.8125 C 70.492188 205.785156 70.566406 207.507813 70.71875 208.984375 C 70.867188 210.457031 71.117188 211.457031 71.464844 211.980469 C 71.964844 212.902344 72.511719 213.578125 73.113281 214.003906 C 73.6875 214.425781 74.414063 214.703125 75.285156 214.828125 C 76.558594 214.703125 77.667969 214.277344 78.621094 213.550781 C 79.542969 212.855469 80.167969 212.015625 80.492188 211.042969 C 80.667969 210.242188 80.753906 209.46875 80.753906 208.71875 C 80.753906 207.621094 80.589844 206.671875 80.269531 205.875 C 79.917969 205.074219 79.46875 204.539063 78.917969 204.261719 C 78.46875 204.015625 78.007813 203.886719 77.53125 203.886719 C 76.933594 203.886719 76.386719 204.078125 75.886719 204.449219 C 75.359375 204.851563 74.960938 205.425781 74.6875 206.171875 C 74.5625 206.546875 74.5 207.144531 74.5 207.972656 C 74.5 208.871094 74.613281 209.621094 74.835938 210.21875 L 74.6875 210.445313 C 74.539063 210.117188 74.4375 209.707031 74.386719 209.207031 "/>
</g>
<g clip-path="url(#clip6)" clip-rule="nonzero">
<path style=" stroke:none;fill-rule:nonzero;fill:rgb(36.898804%,17.599487%,11.399841%);fill-opacity:1;" d="M 82.964844 205.234375 C 82.964844 204.863281 83.136719 204.675781 83.488281 204.675781 C 83.839844 204.726563 84.011719 204.914063 84.011719 205.234375 C 84.011719 205.3125 83.988281 205.425781 83.9375 205.574219 C 83.914063 205.648438 83.898438 205.699219 83.898438 205.722656 C 83.898438 205.824219 84.050781 205.886719 84.351563 205.914063 C 84.675781 205.9375 85.175781 205.960938 85.847656 205.988281 C 86.824219 205.988281 87.445313 206.023438 87.71875 206.097656 C 88.070313 206.148438 88.242188 206.5 88.242188 207.144531 L 88.242188 214.113281 C 88.421875 214.589844 88.792969 214.828125 89.367188 214.828125 C 89.894531 214.828125 90.390625 214.5625 90.867188 214.039063 C 91.394531 213.363281 91.789063 212.71875 92.066406 212.089844 C 92.238281 211.816406 92.378906 211.566406 92.476563 211.34375 C 92.574219 211.089844 92.703125 210.691406 92.855469 210.144531 L 92.855469 210.667969 C 92.503906 211.765625 91.863281 212.964844 90.941406 214.265625 C 90.464844 214.761719 89.867188 215.011719 89.144531 215.011719 C 88.496094 215.011719 87.894531 214.8125 87.347656 214.414063 C 86.773438 214.039063 86.445313 213.601563 86.371094 213.105469 L 86.371094 206.171875 C 86.097656 206.148438 85.671875 206.125 85.101563 206.097656 C 84.5 206.074219 84.066406 206.050781 83.789063 206.023438 C 83.535156 206 83.339844 205.925781 83.1875 205.800781 C 83.039063 205.625 82.964844 205.4375 82.964844 205.234375 M 82.816406 210.144531 C 82.941406 209.695313 83.128906 208.847656 83.378906 207.597656 C 83.5 206.972656 83.613281 206.398438 83.714844 205.875 L 83.898438 205.914063 C 83.824219 206.285156 83.726563 206.734375 83.601563 207.257813 C 83.378906 208.40625 83.226563 209.183594 83.152344 209.582031 C 83.027344 210.105469 82.914063 210.46875 82.816406 210.667969 "/>
</g>
<g clip-path="url(#clip7)" clip-rule="nonzero">
<path style=" stroke:none;fill-rule:nonzero;fill:rgb(36.898804%,17.599487%,11.399841%);fill-opacity:1;" d="M 98.28125 214.414063 C 98.460938 214.289063 98.679688 214.09375 98.957031 213.8125 C 99.007813 213.738281 99.046875 213.6875 99.070313 213.667969 C 99.371094 213.214844 99.65625 212.601563 99.929688 211.832031 C 100.203125 211.105469 100.390625 210.542969 100.492188 210.144531 L 100.492188 210.667969 C 100.390625 211.042969 100.203125 211.566406 99.929688 212.242188 C 99.65625 212.917969 99.371094 213.453125 99.070313 213.851563 C 98.792969 214.179688 98.570313 214.398438 98.394531 214.527344 C 98.21875 214.652344 97.921875 214.800781 97.496094 214.976563 L 96.933594 214.976563 C 96.734375 215 96.535156 215.011719 96.335938 215.011719 C 95.160156 214.964844 94.328125 214.601563 93.824219 213.925781 C 93.328125 213.25 93 212.316406 92.851563 211.117188 C 92.875 209.945313 93.027344 208.984375 93.300781 208.234375 C 93.574219 207.511719 93.910156 206.972656 94.3125 206.621094 C 94.710938 206.273438 95.097656 206.050781 95.472656 205.949219 C 95.824219 205.847656 96.136719 205.800781 96.410156 205.800781 C 96.511719 205.75 96.632813 205.726563 96.785156 205.726563 C 97.234375 205.726563 97.65625 205.886719 98.054688 206.210938 C 98.460938 206.5625 98.65625 207.023438 98.65625 207.597656 C 98.65625 208.121094 98.496094 208.683594 98.171875 209.28125 C 97.84375 209.605469 97.371094 209.871094 96.746094 210.066406 C 96.097656 210.292969 95.273438 210.433594 94.277344 210.480469 L 94.199219 210.144531 C 95.074219 210.144531 95.710938 210.097656 96.109375 209.992188 C 96.484375 209.917969 96.871094 209.796875 97.269531 209.621094 L 97.496094 209.507813 C 98.121094 209.082031 98.429688 208.507813 98.429688 207.785156 C 98.429688 207.285156 98.28125 206.847656 97.980469 206.472656 C 97.683594 206.125 97.296875 205.949219 96.824219 205.949219 C 96.023438 206.050781 95.4375 206.433594 95.0625 207.109375 C 94.6875 207.785156 94.488281 208.972656 94.464844 210.667969 C 94.464844 212.191406 94.597656 213.226563 94.875 213.777344 C 95.121094 214.351563 95.585938 214.710938 96.261719 214.863281 C 96.859375 214.863281 97.308594 214.8125 97.609375 214.710938 C 97.882813 214.640625 98.109375 214.539063 98.28125 214.414063 "/>
</g>
<path style=" stroke:none;fill-rule:nonzero;fill:rgb(36.898804%,17.599487%,11.399841%);fill-opacity:1;" d="M 111.878906 210.632813 L 111.878906 210.105469 C 111.753906 210.554688 111.402344 211.445313 110.832031 212.765625 C 110.777344 212.867188 110.667969 213.113281 110.492188 213.515625 C 110.167969 213.941406 109.90625 214.230469 109.707031 214.378906 C 109.484375 214.527344 109.230469 214.601563 108.957031 214.601563 C 108.585938 214.578125 108.335938 214.488281 108.207031 214.339844 C 108.085938 214.214844 107.996094 214 107.945313 213.703125 C 107.921875 213.550781 107.898438 213.414063 107.871094 213.289063 L 107.871094 205.726563 L 106.035156 205.726563 L 106.035156 213.175781 L 106.113281 213.363281 C 106.285156 213.8125 106.5625 214.179688 106.9375 214.453125 C 107.285156 214.75 107.910156 214.902344 108.808594 214.902344 C 109.28125 214.777344 109.617188 214.640625 109.820313 214.488281 C 109.996094 214.363281 110.21875 214.113281 110.492188 213.738281 C 110.59375 213.566406 110.691406 213.363281 110.792969 213.140625 C 110.84375 213.039063 110.882813 212.96875 110.90625 212.914063 C 111.105469 212.441406 111.21875 212.179688 111.242188 212.128906 C 111.292969 211.980469 111.34375 211.84375 111.394531 211.714844 C 111.542969 211.417969 111.628906 211.242188 111.65625 211.191406 L 111.730469 211.007813 Z M 106.035156 211.753906 L 106.074219 212.503906 L 106.035156 212.539063 C 106.035156 212.59375 106.023438 212.628906 105.996094 212.652344 C 105.574219 213.425781 105.175781 214.039063 104.800781 214.488281 C 104.351563 214.816406 103.886719 214.976563 103.414063 214.976563 C 102.964844 214.976563 102.527344 214.839844 102.105469 214.5625 C 101.605469 214.066406 101.238281 213.539063 101.015625 212.992188 C 100.765625 212.464844 100.617188 211.929688 100.566406 211.382813 L 100.566406 210.820313 C 100.566406 209.542969 100.839844 208.398438 101.394531 207.371094 C 101.84375 206.671875 102.277344 206.222656 102.703125 206.023438 C 103.101563 205.824219 103.488281 205.726563 103.863281 205.726563 C 104.363281 205.726563 104.761719 205.847656 105.0625 206.101563 C 105.335938 206.347656 105.585938 206.660156 105.8125 207.035156 C 105.910156 207.210938 105.984375 207.324219 106.035156 207.371094 L 106.035156 207.894531 C 105.761719 207.199219 105.449219 206.699219 105.101563 206.398438 C 104.726563 206.121094 104.375 205.988281 104.050781 205.988281 C 103.800781 205.988281 103.613281 206.035156 103.488281 206.136719 C 103.316406 206.234375 103.191406 206.371094 103.113281 206.546875 C 103.015625 206.699219 102.851563 207.070313 102.628906 207.671875 C 102.476563 208.347656 102.378906 208.808594 102.328125 209.058594 C 102.277344 209.355469 102.230469 209.859375 102.179688 210.554688 C 102.179688 210.605469 102.191406 210.667969 102.214844 210.742188 C 102.214844 210.941406 102.230469 211.191406 102.253906 211.492188 C 102.277344 212.070313 102.328125 212.527344 102.402344 212.878906 C 102.476563 213.226563 102.667969 213.640625 102.964844 214.113281 C 103.289063 214.4375 103.613281 214.601563 103.9375 214.601563 C 104.4375 214.601563 104.902344 214.265625 105.324219 213.589844 C 105.726563 212.914063 105.960938 212.304688 106.035156 211.753906 "/>
<path style=" stroke:none;fill-rule:nonzero;fill:rgb(36.898804%,17.599487%,11.399841%);fill-opacity:1;" d="M 113.601563 202.277344 L 115.664063 202.277344 L 115.664063 202.574219 L 113.601563 202.574219 Z M 115.511719 214.414063 C 115.714844 214.289063 115.949219 214.015625 116.222656 213.589844 C 116.523438 212.96875 116.808594 212.316406 117.085938 211.640625 C 117.335938 211.015625 117.511719 210.519531 117.609375 210.144531 L 117.609375 210.667969 L 117.386719 211.191406 C 117.1875 211.742188 116.984375 212.253906 116.785156 212.730469 C 116.5625 213.25 116.371094 213.625 116.222656 213.851563 C 115.976563 214.226563 115.761719 214.472656 115.585938 214.601563 C 115.386719 214.726563 115.050781 214.851563 114.574219 214.976563 L 114.203125 214.976563 C 113.453125 214.976563 112.929688 214.800781 112.628906 214.453125 C 112.328125 214.101563 112.09375 213.625 111.914063 213.027344 C 111.867188 212.828125 111.828125 212.703125 111.804688 212.652344 L 111.804688 196.433594 L 113.527344 196.433594 L 113.527344 212.878906 C 113.550781 212.953125 113.578125 213.128906 113.601563 213.402344 C 113.652344 213.828125 113.753906 214.128906 113.902344 214.304688 C 114.027344 214.472656 114.300781 214.589844 114.726563 214.636719 C 115.023438 214.636719 115.289063 214.5625 115.511719 214.414063 "/>
<path style=" stroke:none;fill-rule:nonzero;fill:rgb(36.898804%,17.599487%,11.399841%);fill-opacity:1;" d="M 121.316406 214.414063 C 121.546875 214.265625 121.777344 213.976563 122.03125 213.550781 C 122.277344 213.128906 122.542969 212.566406 122.816406 211.867188 C 123.089844 211.191406 123.289063 210.617188 123.414063 210.144531 L 123.414063 210.667969 C 123.339844 210.917969 123.152344 211.402344 122.855469 212.128906 C 122.550781 212.855469 122.292969 213.417969 122.066406 213.8125 C 121.839844 214.191406 121.628906 214.4375 121.429688 214.5625 C 121.230469 214.6875 120.867188 214.824219 120.34375 214.976563 L 119.933594 214.976563 C 119.105469 214.976563 118.546875 214.800781 118.246094 214.453125 C 117.945313 214.128906 117.734375 213.714844 117.609375 213.214844 L 117.609375 205.761719 L 119.371094 205.761719 L 119.371094 213.476563 C 119.421875 213.875 119.519531 214.164063 119.671875 214.339844 C 119.796875 214.539063 120.082031 214.640625 120.53125 214.640625 C 120.828125 214.640625 121.09375 214.5625 121.316406 214.414063 M 119.222656 202.015625 C 119.394531 202.191406 119.480469 202.402344 119.480469 202.652344 C 119.480469 202.902344 119.394531 203.113281 119.222656 203.289063 C 119.046875 203.488281 118.835938 203.589844 118.582031 203.589844 C 118.285156 203.589844 118.046875 203.488281 117.871094 203.289063 C 117.671875 203.113281 117.574219 202.902344 117.574219 202.652344 C 117.574219 202.402344 117.671875 202.191406 117.871094 202.015625 C 118.046875 201.867188 118.285156 201.792969 118.582031 201.792969 C 118.835938 201.792969 119.046875 201.867188 119.222656 202.015625 "/>
<path style=" stroke:none;fill-rule:nonzero;fill:rgb(36.898804%,17.599487%,11.399841%);fill-opacity:1;" d="M 131.242188 211.007813 C 130.492188 211.007813 129.84375 210.792969 129.296875 210.367188 C 128.722656 209.945313 128.386719 209.429688 128.28125 208.832031 C 128.28125 208.382813 128.355469 208.058594 128.507813 207.859375 C 128.65625 207.660156 128.835938 207.5625 129.035156 207.5625 C 129.382813 207.5625 129.578125 207.695313 129.632813 207.972656 C 129.78125 208.269531 129.90625 208.59375 130.007813 208.945313 C 130.105469 209.320313 130.222656 209.832031 130.34375 210.480469 C 130.515625 210.730469 130.816406 210.859375 131.242188 210.859375 C 131.816406 210.859375 132.441406 210.644531 133.113281 210.21875 L 133.113281 210.480469 C 132.515625 210.832031 131.890625 211.007813 131.242188 211.007813 M 127.050781 214.789063 C 127.421875 214.789063 127.835938 214.640625 128.28125 214.339844 C 129.257813 213.441406 129.78125 212.304688 129.855469 210.929688 C 129.855469 210.28125 129.796875 209.644531 129.671875 209.019531 C 129.542969 208.421875 129.355469 207.910156 129.109375 207.484375 C 128.78125 206.9375 128.460938 206.535156 128.136719 206.285156 C 127.808594 206.058594 127.535156 205.949219 127.308594 205.949219 C 126.910156 205.949219 126.585938 206.023438 126.335938 206.171875 C 126.160156 206.273438 126.023438 206.414063 125.921875 206.585938 C 125.820313 206.761719 125.660156 207.136719 125.4375 207.707031 C 125.308594 208.234375 125.234375 208.644531 125.214844 208.945313 C 125.160156 209.269531 125.113281 209.757813 125.0625 210.402344 L 125.0625 210.632813 C 125.113281 211.628906 125.199219 212.378906 125.324219 212.878906 C 125.449219 213.402344 125.710938 213.914063 126.109375 214.414063 C 126.410156 214.664063 126.722656 214.789063 127.050781 214.789063 M 129.597656 212.839844 C 129.34375 213.414063 128.980469 213.964844 128.507813 214.488281 C 127.910156 214.816406 127.371094 214.976563 126.898438 214.976563 C 126.648438 214.976563 126.359375 214.949219 126.035156 214.902344 C 125.738281 214.800781 125.523438 214.710938 125.398438 214.640625 C 125.273438 214.589844 125.050781 214.476563 124.726563 214.304688 L 124.691406 214.265625 C 124.3125 213.941406 124.027344 213.515625 123.824219 212.992188 C 123.628906 212.492188 123.503906 211.96875 123.453125 211.417969 C 123.425781 211.242188 123.414063 211.078125 123.414063 210.929688 C 123.441406 209.578125 123.738281 208.40625 124.3125 207.410156 C 124.710938 206.710938 125.121094 206.261719 125.550781 206.058594 C 125.949219 205.859375 126.347656 205.761719 126.75 205.761719 C 127.121094 205.761719 127.546875 205.859375 128.019531 206.058594 C 128.46875 206.285156 128.886719 206.746094 129.257813 207.445313 C 129.480469 207.972656 129.671875 208.519531 129.816406 209.09375 C 129.96875 209.671875 130.042969 210.28125 130.042969 210.929688 C 129.96875 211.65625 129.816406 212.292969 129.597656 212.839844 "/>
<path style=" stroke:none;fill-rule:nonzero;fill:rgb(36.898804%,17.599487%,11.399841%);fill-opacity:1;" d="M 145.023438 214.414063 C 145.253906 214.265625 145.539063 213.964844 145.886719 213.515625 C 146.214844 212.890625 146.472656 212.332031 146.675781 211.832031 C 146.875 211.355469 147.050781 210.792969 147.199219 210.144531 L 147.199219 210.667969 C 147.125 211.144531 146.972656 211.628906 146.75 212.128906 C 146.5 212.652344 146.199219 213.214844 145.851563 213.8125 C 145.578125 214.191406 145.339844 214.4375 145.136719 214.5625 C 144.9375 214.710938 144.613281 214.851563 144.164063 214.976563 L 143.753906 214.976563 C 142.90625 214.976563 142.316406 214.789063 141.992188 214.414063 C 141.640625 214.039063 141.445313 213.625 141.394531 213.175781 L 141.394531 207.371094 C 141.367188 207.273438 141.34375 207.109375 141.316406 206.886719 C 141.269531 206.585938 141.191406 206.359375 141.09375 206.210938 C 140.996094 206.085938 140.757813 206.023438 140.382813 206.023438 C 140.355469 206.023438 140.308594 206.039063 140.234375 206.058594 L 140.046875 206.058594 C 139.421875 206.335938 138.945313 206.671875 138.621094 207.070313 C 138.269531 207.496094 137.769531 208.246094 137.121094 209.320313 L 137.085938 209.394531 C 137.484375 208.347656 137.886719 207.609375 138.28125 207.1875 C 138.683594 206.761719 139.269531 206.308594 140.046875 205.835938 C 140.121094 205.8125 140.167969 205.785156 140.195313 205.761719 C 141.191406 205.761719 141.894531 205.898438 142.289063 206.171875 C 142.664063 206.472656 142.941406 206.847656 143.117188 207.296875 L 143.191406 207.445313 L 143.191406 213.363281 C 143.191406 213.738281 143.253906 214.039063 143.378906 214.265625 C 143.503906 214.515625 143.789063 214.640625 144.238281 214.640625 C 144.539063 214.640625 144.800781 214.5625 145.023438 214.414063 M 133.113281 210.144531 C 133.242188 209.769531 133.390625 209.195313 133.566406 208.421875 C 133.691406 207.894531 133.777344 207.570313 133.828125 207.445313 L 133.863281 207.332031 C 134.117188 206.710938 134.3125 206.308594 134.464844 206.136719 C 134.589844 205.960938 134.847656 205.835938 135.25 205.761719 C 136.222656 205.761719 136.886719 205.914063 137.234375 206.210938 C 137.582031 206.511719 137.835938 206.898438 137.984375 207.371094 L 138.023438 207.445313 L 138.023438 214.9375 L 136.261719 214.9375 L 136.261719 207.371094 C 136.234375 207.222656 136.210938 207.070313 136.1875 206.921875 C 136.136719 206.621094 136.0625 206.414063 135.964844 206.285156 C 135.839844 206.160156 135.585938 206.085938 135.214844 206.058594 C 134.914063 206.058594 134.6875 206.148438 134.539063 206.324219 C 134.386719 206.523438 134.214844 206.933594 134.015625 207.558594 C 133.914063 207.960938 133.765625 208.5 133.566406 209.167969 C 133.488281 209.417969 133.425781 209.644531 133.378906 209.84375 C 133.304688 210.097656 133.214844 210.367188 133.113281 210.667969 "/>
<g clip-path="url(#clip8)" clip-rule="nonzero">
<path style=" stroke:none;fill-rule:nonzero;fill:rgb(36.898804%,17.599487%,11.399841%);fill-opacity:1;" d="M 154.839844 212.128906 C 154.242188 212.554688 153.429688 212.941406 152.40625 213.289063 L 152.066406 213.664063 C 153.242188 213.242188 154.152344 212.792969 154.804688 212.316406 C 155.453125 211.867188 156.078125 211.253906 156.675781 210.480469 L 156.675781 210.21875 C 156.050781 211.066406 155.441406 211.703125 154.839844 212.128906 M 147.160156 210.066406 L 148.472656 204.265625 L 148.882813 204.265625 C 148.933594 204.660156 148.996094 204.964844 149.070313 205.164063 C 149.121094 205.363281 149.222656 205.585938 149.371094 205.835938 C 149.671875 206.1875 150.085938 206.523438 150.609375 206.847656 C 150.933594 207.070313 151.230469 207.285156 151.503906 207.484375 C 151.730469 207.707031 151.980469 208.035156 152.257813 208.457031 C 152.757813 209.183594 153.007813 210.03125 153.007813 211.007813 C 153.007813 211.851563 152.78125 212.628906 152.328125 213.328125 C 151.855469 214.050781 151.15625 214.578125 150.234375 214.898438 C 149.984375 214.976563 149.746094 215.011719 149.519531 215.011719 C 148.898438 215.011719 148.410156 214.800781 148.0625 214.378906 C 147.710938 213.953125 147.535156 213.488281 147.535156 212.992188 L 147.535156 212.765625 C 147.5625 212.691406 147.574219 212.628906 147.574219 212.578125 C 147.722656 212.230469 147.9375 212.054688 148.210938 212.054688 C 148.585938 212.054688 148.796875 212.328125 148.847656 212.878906 C 148.820313 213.277344 148.683594 213.480469 148.4375 213.480469 C 148.308594 213.480469 148.1875 213.441406 148.0625 213.363281 C 148.011719 213.441406 147.984375 213.527344 147.984375 213.625 C 147.984375 213.902344 148.148438 214.140625 148.472656 214.339844 C 148.773438 214.539063 149.121094 214.640625 149.519531 214.640625 C 149.871094 214.640625 150.195313 214.539063 150.496094 214.339844 C 150.796875 214.164063 151.007813 213.886719 151.132813 213.515625 C 151.28125 212.941406 151.355469 212.316406 151.355469 211.640625 C 151.355469 210.820313 151.242188 210.007813 151.019531 209.207031 C 150.796875 208.40625 150.484375 207.734375 150.085938 207.1875 C 149.859375 206.9375 149.65625 206.699219 149.484375 206.472656 C 149.183594 206.121094 148.835938 205.6875 148.4375 205.164063 L 147.160156 210.78125 "/>
</g>
</g>
</svg>
